<?xml version="1.0" encoding="UTF-8" standalone="no"?>
<svg
   id="Outline"
   viewBox="0 0 23.999572 23.999572"
   width="511.99088"
   height="511.99088"
   version="1.1"
   sodipodi:docname="cross.svg"
   xmlns:inkscape="http://www.inkscape.org/namespaces/inkscape"
   xmlns:sodipodi="http://sodipodi.sourceforge.net/DTD/sodipodi-0.dtd"
   xmlns="http://www.w3.org/2000/svg"
   xmlns:svg="http://www.w3.org/2000/svg">
  <defs
     id="defs1" />
  <sodipodi:namedview
     id="namedview1"
     pagecolor="#ffffff"
     bordercolor="#000000"
     borderopacity="0.25"
     inkscape:showpageshadow="2"
     inkscape:pageopacity="0.0"
     inkscape:pagecheckerboard="0"
     inkscape:deskcolor="#d1d1d1" />
  <path
     d="m 23.706786,0.29278645 v 0 a 1,1 0 0 0 -1.414,0 L 11.999786,10.585786 1.7067865,0.29278645 a 1,1 0 0 0 -1.41400005,0 v 0 a 1,1 0 0 0 0,1.41400005 L 10.585786,11.999786 0.29278645,22.292786 a 1,1 0 0 0 0,1.414 v 0 a 1,1 0 0 0 1.41400005,0 l 10.2929995,-10.293 10.293,10.293 a 1,1 0 0 0 1.414,0 v 0 a 1,1 0 0 0 0,-1.414 l -10.293,-10.293 10.293,-10.2929995 a 1,1 0 0 0 0,-1.41400005 z"
     id="path1" />
</svg>
